<svg width="16" height="17" viewBox="0 0 16 17" fill="none" xmlns="http://www.w3.org/2000/svg">
<path d="M11.1667 5.83301C11.1667 5.55687 10.9428 5.33301 10.6667 5.33301H5.33333C5.05719 5.33301 4.83333 5.55687 4.83333 5.83301C4.83333 6.10915 5.05719 6.33301 5.33333 6.33301H10.6667C10.9428 6.33301 11.1667 6.10915 11.1667 5.83301Z" fill="white"/>
<path d="M11.1667 8.83301C11.1667 8.55687 10.9428 8.33301 10.6667 8.33301H5.33333C5.05719 8.33301 4.83333 8.55687 4.83333 8.83301C4.83333 9.10915 5.05719 9.33301 5.33333 9.33301H10.6667C10.9428 9.33301 11.1667 9.10915 11.1667 8.83301Z" fill="white"/>
<path fill-rule="evenodd" clip-rule="evenodd" d="M8.68904 1.33301H7.31096C6.39648 1.333 5.67952 1.333 5.10329 1.38008C4.51653 1.42802 4.03179 1.52726 3.59303 1.75082C2.87175 2.11833 2.28532 2.70476 1.91781 3.42604C1.69425 3.8648 1.59501 4.34954 1.54707 4.9363C1.49999 5.51253 1.5 6.22948 1.5 7.14396V8.9818C1.5 9.15279 1.49999 9.25689 1.50429 9.34762C1.59777 11.3222 3.17747 12.9019 5.15206 12.9954C5.2428 12.9997 5.35742 12.9997 5.54744 12.9997H5.56643L5.61659 12.9997C6.19473 13.0034 6.75789 13.1839 7.2305 13.5169L7.26324 13.5402L9.00373 14.7835C10.0067 15.4999 11.3247 14.4652 10.867 13.3208C10.8054 13.167 10.9187 12.9997 11.0844 12.9997H11.4856C13.1504 12.9997 14.5 11.6501 14.5 9.98524L14.5 7.14397C14.5 6.22949 14.5 5.51253 14.4529 4.9363C14.405 4.34954 14.3057 3.8648 14.0822 3.42604C13.7147 2.70476 13.1283 2.11833 12.407 1.75082C11.9682 1.52726 11.4835 1.42802 10.8967 1.38008C10.3205 1.333 9.60352 1.333 8.68904 1.33301ZM10.8153 2.37676C11.3402 2.41965 11.6787 2.50207 11.953 2.64182C12.4861 2.91346 12.9195 3.34691 13.1912 3.88003C13.3309 4.15432 13.4134 4.49281 13.4562 5.01773C13.4996 5.54849 13.5 6.22467 13.5 7.16634V9.98524C13.5 11.0978 12.5981 11.9997 11.4856 11.9997H11.0844C10.2113 11.9997 9.61422 12.8815 9.93849 13.6922C10.0254 13.9093 9.77527 14.1057 9.58497 13.9697L7.84448 12.7265L7.80651 12.6995C7.16711 12.2489 6.40518 12.0048 5.62299 11.9998L5.56643 11.9997C5.35194 11.9997 5.26316 11.9995 5.19935 11.9965C3.73987 11.9274 2.57226 10.7598 2.50317 9.30033C2.50014 9.23635 2.5 9.15771 2.5 8.96557V7.16634C2.5 6.22467 2.50039 5.54849 2.54375 5.01773C2.58664 4.49281 2.66906 4.15432 2.80882 3.88003C3.08046 3.34691 3.5139 2.91346 4.04703 2.64182C4.32131 2.50207 4.6598 2.41965 5.18472 2.37676C5.71548 2.3334 6.39166 2.33301 7.33333 2.33301H8.66667C9.60834 2.33301 10.2845 2.3334 10.8153 2.37676Z" fill="white"/>
</svg>
