<svg width="12" height="12" viewBox="0 0 12 12" fill="none" xmlns="http://www.w3.org/2000/svg">
<path d="M6.50032 0.666992C6.50032 0.39085 6.27647 0.166992 6.00033 0.166992C5.72418 0.166992 5.50032 0.39085 5.50032 0.666992L5.50033 5.50033H0.666992C0.39085 5.50033 0.166992 5.72418 0.166992 6.00033C0.166992 6.27647 0.39085 6.50033 0.666992 6.50033H5.50033V11.3337C5.50033 11.6098 5.72418 11.8337 6.00033 11.8337C6.27647 11.8337 6.50033 11.6098 6.50033 11.3337V6.50033H11.3337C11.6098 6.50033 11.8337 6.27647 11.8337 6.00033C11.8337 5.72418 11.6098 5.50033 11.3337 5.50033H6.50033L6.50032 0.666992Z" fill="white"/>
</svg>
