<svg width="21" height="20" viewBox="0 0 21 20" fill="none" xmlns="http://www.w3.org/2000/svg">
<path d="M0.414062 10C0.414062 4.47656 4.83268 0 10.2846 0C15.7365 0 20.1552 4.47656 20.1552 10C20.1552 15.5234 15.7365 20 10.2846 20C4.83268 20 0.414062 15.5234 0.414062 10ZM7.16151 8.12891L8.97754 9.96484L7.16151 11.8359C6.80293 12.2031 6.80293 12.7969 7.16151 13.1289C7.52394 13.5273 8.11001 13.5273 8.43774 13.1289L10.2499 11.3242L12.0968 13.1289C12.4592 13.5273 13.0453 13.5273 13.373 13.1289C13.7663 12.7969 13.7663 12.2031 13.373 11.8359L11.5917 9.96484L13.373 8.12891C13.7663 7.79688 13.7663 7.20312 13.373 6.83594C13.0453 6.47266 12.4592 6.47266 12.0968 6.83594L10.2499 8.67578L8.43774 6.83594C8.11001 6.47266 7.52394 6.47266 7.16151 6.83594C6.80293 7.20312 6.80293 7.79688 7.16151 8.12891Z" fill="#E74A3B"/>
</svg>

