<svg width="20" height="20" viewBox="0 0 20 20" fill="none" xmlns="http://www.w3.org/2000/svg">
  <path fill-rule="evenodd" clip-rule="evenodd" d="M9.16699 0.208008C4.67968 0.208008 1.04199 3.84569 1.04199 8.33301C1.04199 12.8203 4.67968 16.458 9.16699 16.458C13.6543 16.458 17.292 12.8203 17.292 8.33301C17.292 3.84569 13.6543 0.208008 9.16699 0.208008ZM2.29199 8.33301C2.29199 4.53605 5.37004 1.45801 9.16699 1.45801C12.964 1.45801 16.042 4.53605 16.042 8.33301C16.042 12.13 12.964 15.208 9.16699 15.208C5.37004 15.208 2.29199 12.13 2.29199 8.33301Z" fill="white"/>
  <path d="M16.2757 14.5578C16.0316 14.3137 15.6359 14.3137 15.3918 14.5578C15.1477 14.8019 15.1477 15.1976 15.3918 15.4417L18.725 18.775C18.9691 19.0191 19.3648 19.0191 19.6089 18.775C19.853 18.5309 19.853 18.1352 19.6089 17.8911L16.2757 14.5578Z" fill="white"/>
</svg>
