<svg width="34" height="36" viewBox="0 0 34 36" fill="none" xmlns="http://www.w3.org/2000/svg">
<path d="M15.2077 13.949L9.16683 19.9898L5.876 16.7082L4.5835 18.0007L9.16683 22.584L16.5002 15.2507L15.2077 13.949ZM11.0002 8.83398C5.94016 8.83398 1.8335 12.9407 1.8335 18.0007C1.8335 23.0607 5.94016 27.1673 11.0002 27.1673C16.0602 27.1673 20.1668 23.0607 20.1668 18.0007C20.1668 12.9407 16.0602 8.83398 11.0002 8.83398ZM11.0002 25.334C6.9485 25.334 3.66683 22.0523 3.66683 18.0007C3.66683 13.949 6.9485 10.6673 11.0002 10.6673C15.0518 10.6673 18.3335 13.949 18.3335 18.0007C18.3335 22.0523 15.0518 25.334 11.0002 25.334Z" fill="#66BB6A"/>
</svg>
